<svg width="25" height="25" viewBox="0 0 25 25" fill="none" xmlns="http://www.w3.org/2000/svg">
<path fill-rule="evenodd" clip-rule="evenodd" d="M12.5 0.78125C5.88149 0.78125 0.520813 6.14193 0.520813 12.7604C0.520813 18.0612 3.94985 22.5384 8.71157 24.1257C9.31053 24.2305 9.53514 23.8711 9.53514 23.5566C9.53514 23.2721 9.52016 22.3288 9.52016 21.3255C6.5104 21.8796 5.73175 20.5918 5.49217 19.918C5.3574 19.5736 4.77342 18.5104 4.2643 18.2259C3.84503 18.0013 3.24607 17.4473 4.24933 17.4323C5.19269 17.4173 5.86652 18.3008 6.09113 18.6602C7.16925 20.472 8.89126 19.9629 9.58006 19.6484C9.68488 18.8698 9.99933 18.3457 10.3437 18.0462C7.67837 17.7467 4.89321 16.7135 4.89321 12.1315C4.89321 10.8288 5.3574 9.75065 6.12107 8.91211C6.00128 8.61263 5.58201 7.38477 6.24087 5.73763C6.24087 5.73763 7.24412 5.42318 9.53514 6.9655C10.4935 6.69596 11.5117 6.5612 12.5299 6.5612C13.5482 6.5612 14.5664 6.69596 15.5247 6.9655C17.8157 5.4082 18.819 5.73763 18.819 5.73763C19.4778 7.38477 19.0586 8.61263 18.9388 8.91211C19.7025 9.75065 20.1666 10.8138 20.1666 12.1315C20.1666 16.7285 17.3665 17.7467 14.7012 18.0462C15.1354 18.4206 15.5097 19.1393 15.5097 20.2624C15.5097 21.8646 15.4948 23.1523 15.4948 23.5566C15.4948 23.8711 15.7194 24.2454 16.3183 24.1257C21.0501 22.5384 24.4791 18.0462 24.4791 12.7604C24.4791 6.14193 19.1185 0.78125 12.5 0.78125Z" fill="white"/>
</svg>
